<svg xmlns="http://www.w3.org/2000/svg" width="16" height="16" viewBox="0 0 16 16">
  <path fill="#FFF" d="M13.668,12.752 L8.544,18.9 C8.192,18 8,17.024 8,16 C8,11.58 11.58,8 16,8 C20.42,8 24,11.58 24,16 C24,18.444 22.904,20.632 21.176,22.1 L10.824,22.1 C10.372,21.712 9.96,21.276 9.6,20.8 L18.736,20.8 L18.736,17.336 L21.62,20.8 L22.4,20.8 L18.732,16.4 L17.72,17.616 L13.668,12.752 Z M18.732,11.2 C17.628,11.2 16.732,12.096 16.732,13.2 C16.732,14.304 17.628,15.2 18.732,15.2 C19.836,15.2 20.732,14.304 20.732,13.2 C20.732,12.096 19.836,11.2 18.732,11.2 Z M13.668,9.752 C13.116,9.752 12.668,10.2 12.668,10.752 C12.668,11.304 13.116,11.752 13.668,11.752 C14.22,11.752 14.668,11.304 14.668,10.752 C14.668,10.2 14.22,9.752 13.668,9.752 Z M11.628,22.7 L20.372,22.7 C19.116,23.52 17.612,24 16,24 C14.388,24 12.884,23.52 11.628,22.7 Z M17.332,18.084 L15.568,20.2 L9.192,20.2 C8.94,19.788 8.72,19.356 8.544,18.9 L13.668,18.9 L13.668,13.688 L17.332,18.084 Z" transform="translate(-8 -8)"/>
</svg>
