<svg xmlns="http://www.w3.org/2000/svg" width="40" height="40" viewBox="0 0 40 40">
  <g fill="none" fill-rule="evenodd">
    <circle cx="20" cy="20" r="20" fill="#FF2D55"/>
    <path fill="#FFF" fill-rule="nonzero" d="M10.6622711,20.909737 C10.4747253,20.7277896 10.3809524,20.4548685 10.3809524,20.2729211 C10.3809524,20.0909737 10.4747253,19.8180526 10.6622711,19.6361052 L11.9750916,18.3624733 C12.3501832,17.9985785 12.9128205,17.9985785 13.2879121,18.3624733 L17.0153846,22.3425729 C17.2029304,22.5245203 17.4842491,22.5245203 17.6717949,22.3425729 L27.2835165,12.6538735 C27.6586081,12.2899787 28.2212454,12.2899787 28.596337,12.6538735 L29.9091575,13.9275053 C30.2842491,14.2914001 30.2842491,14.8372424 29.9091575,15.2011372 L17.9531136,27.3461265 C17.7655678,27.5280739 17.578022,27.6190476 17.2967033,27.6190476 C17.0153846,27.6190476 16.8278388,27.5280739 16.640293,27.3461265 L10.6622711,20.909737 Z"/>
  </g>
</svg>
