<svg xmlns="http://www.w3.org/2000/svg" width="64" height="64" viewBox="0 0 64 64">
  <g fill="none" fill-rule="evenodd">
    <circle cx="32" cy="32" r="32" fill="#FFF" fill-rule="nonzero" opacity=".12"/>
    <g transform="translate(12.8 12.8)">
      <rect width="38.4" height="38.4"/>
      <path fill="#FFF" d="M29.9293548,8.58004873 L29.8199513,8.47064517 C29.1951124,7.84580634 28.1820485,7.84580634 27.5572097,8.47064517 L19.2,16.8278549 L10.8427903,8.47064517 C10.2179515,7.84580634 9.20488756,7.84580634 8.58004873,8.47064517 L8.47064517,8.58004873 C7.84580634,9.20488756 7.84580634,10.2179515 8.47064517,10.8427903 L16.8278549,19.2 L8.47064517,27.5572097 C7.84580634,28.1820485 7.84580634,29.1951124 8.47064517,29.8199513 L8.58004873,29.9293548 C9.20488756,30.5541937 10.2179515,30.5541937 10.8427903,29.9293548 L19.2,21.5721451 L27.5572097,29.9293548 C28.1820485,30.5541937 29.1951124,30.5541937 29.8199513,29.9293548 L29.9293548,29.8199513 C30.5541937,29.1951124 30.5541937,28.1820485 29.9293548,27.5572097 L21.5721451,19.2 L29.9293548,10.8427903 C30.5541937,10.2179515 30.5541937,9.20488756 29.9293548,8.58004873 Z"/>
    </g>
  </g>
</svg>
