<?xml version="1.0" encoding="utf-8"?>
<!-- Generator: Adobe Illustrator 21.1.0, SVG Export Plug-In . SVG Version: 6.00 Build 0)  -->
<svg version="1.1" id="Layer_1" xmlns="http://www.w3.org/2000/svg" xmlns:xlink="http://www.w3.org/1999/xlink" x="0px" y="0px"
	 viewBox="0 0 241 36.9" style="enable-background:new 0 0 241 36.9;" xml:space="preserve">
<style type="text/css">
	.st0{fill:none;stroke:#FFFFFF;stroke-width:2.6312;}
	.st1{fill:none;stroke:#3E396B;stroke-width:2.3125;}
	.st2{fill:none;stroke:#FFFFFF;stroke-width:6.6265;stroke-linecap:square;}
	.st3{fill:#FFFFFF;}
</style>
<title>icons 2</title>
<desc>Created with Sketch.</desc>
<g id="Group" transform="translate(73.000000, 14.000000)">
	<g id="Menu" transform="translate(36.000000, 3.000000)">
		<path id="Line_7_" class="st0" d="M17-13.8h52.7"/>
		<path id="Line-Copy_1_" class="st0" d="M17,1.9h52.7"/>
		<path id="Line-Copy-2_1_" class="st0" d="M17,17.7h34.3"/>
	</g>
	<g id="close_1_">
		<path id="Line-Copy_2_" class="st1" d="M-1,20.7l32.6-34.3"/>
		<path id="Line-Copy-2_2_" class="st1" d="M30.8,20.7L-1.9-13.6"/>
	</g>
</g>
<g id="No-Email-Form">
	<g id="Desktop" transform="translate(-1041.000000, -2961.000000)">
		<g id="FAQs" transform="translate(0.000000, 2807.000000)">
			<g id="Question" transform="translate(370.000000, 131.000000)">
				<g id="Arrow_2_" transform="translate(671.000000, 23.000000)">
					<path id="Line_9_" class="st2" d="M5.4,5.3L32,31.9"/>
					<path id="Line_8_" class="st2" d="M58.4,5.3L31.7,31.9"/>
				</g>
			</g>
		</g>
	</g>
</g>
<g id="With-Email">
	<g id="Desktop_1_" transform="translate(-526.000000, -373.000000)">
		<g id="Group-4" transform="translate(507.000000, 359.000000)">
			<g id="Group-7" transform="translate(3.000000, 0.000000)">
				<g id="Group-6">
					<path id="Shape" class="st3" d="M243,44.1c0,0.5-0.4,0.8-0.9,0.8h-26.3c-0.5,0-0.9-0.4-0.9-0.8V23.7c0,0,0,0,0,0c0,0,0,0,0,0
						c0-0.2,0.1-0.4,0.2-0.5c0,0,0,0,0-0.1c0,0,0,0,0.1,0c0.1-0.1,0.3-0.2,0.5-0.2c0,0,0.1,0,0.1,0h26.3c0,0,0.1,0,0.1,0
						c0.2,0,0.3,0.1,0.5,0.2c0,0,0.1,0,0.1,0c0,0,0,0,0,0.1c0.1,0.1,0.2,0.3,0.2,0.5c0,0,0,0,0,0c0,0,0,0,0,0L243,44.1L243,44.1z
						 M216.8,42.2c0,0.5,0.4,0.9,0.9,0.9h22.6c0.5,0,0.9-0.4,0.9-0.9V24.7L229.6,34c0,0,0,0,0,0c-0.2,0.2-0.4,0.3-0.6,0.2
						c-0.2,0-0.5-0.1-0.6-0.2c0,0,0,0,0,0l-11.5-9.3L216.8,42.2L216.8,42.2z M229,32.1l10.3-7.4h-20.6L229,32.1z"/>
				</g>
			</g>
		</g>
	</g>
</g>
</svg>
